<svg xmlns="http://www.w3.org/2000/svg" viewBox="0 0 1541.9 280.4"><defs><style>.cls-1{fill:#6590bb;}.cls-2{fill:#75a7d9;}</style></defs><g id="Layer_1" data-name="Layer 1"><path class="cls-1" d="M576.5,286.3v58.6H420.7V78.9h60.8V286.3Z" transform="translate(-70.9 -69.7)"/><path class="cls-1" d="M769.6,154.9v190h-57V327c-10.3,14.1-29.3,23.2-54.4,23.2-38.3,0-71-27.4-71-78.7V154.9h57V263.2c0,23.5,14.8,34.5,33,34.5,20.9,0,35.4-12.1,35.4-39.1V154.9Z" transform="translate(-70.9 -69.7)"/><path class="cls-1" d="M1086.9,228.2V344.9h-57V233.1c0-19-9.1-31.1-27.4-31.1s-29.6,13.3-29.6,35.7V344.9h-57V233.1c0-19-9.1-31.1-27.4-31.1s-29.6,13.3-29.6,35.7V344.9h-57v-190h57v17.4c8.7-12.9,25.4-22.8,50.9-22.8,22.4,0,39.1,9.2,49.8,25.1,10.6-15.2,28.1-25.1,55.1-25.1C1058.4,149.5,1086.9,180.7,1086.9,228.2Z" transform="translate(-70.9 -69.7)"/><path class="cls-1" d="M1110.8,103.9a34.2,34.2,0,1,1,34.2,34.2A34.6,34.6,0,0,1,1110.8,103.9Zm5.7,51h57v190h-57Z" transform="translate(-70.9 -69.7)"/><path class="cls-1" d="M1388.2,228.2V344.9h-57V236.6c0-23.6-14.8-34.6-33-34.6-20.9,0-35.4,12.1-35.4,39.1V344.9h-57v-190h57v17.8c10.3-14,29.3-23.2,54.4-23.2C1355.5,149.5,1388.2,176.9,1388.2,228.2Z" transform="translate(-70.9 -69.7)"/><path class="cls-1" d="M1612.8,154.9v190h-57V327c-12.5,14.4-31.2,23.2-56.6,23.2-49.8,0-90.9-43.7-90.9-100.3s41.1-100.4,90.9-100.4c25.4,0,44.1,8.8,56.6,23.2V154.9Zm-57,95c0-28.5-19-46.4-45.2-46.4s-45.3,17.9-45.3,46.4,19.1,46.3,45.3,46.3S1555.8,278.4,1555.8,249.9Z" transform="translate(-70.9 -69.7)"/></g><g id="Layer_3" data-name="Layer 3"><path class="cls-1" d="M205.6,98.5a113.3,113.3,0,1,1-44,217.8A112.1,112.1,0,0,1,125.5,292,113.3,113.3,0,0,1,205.6,98.5m0-21.3A134.7,134.7,0,1,0,340.3,211.9,134.7,134.7,0,0,0,205.6,77.2Z" transform="translate(-70.9 -69.7)"/><path class="cls-1" d="M217.4,111.6c-3.8,19.9-26,32.4-42,48.2-26.1,25.9-41.8,57.7-38,90.9,1.6,31,14.3,56,40.2,74.5l43.4,3.9c-25.2-8.5-50.6-17.7-62.8-51.5-6.8-24.8-6.2-52.1,19.4-87.1C194.4,168.5,222.3,149,217.4,111.6Z" transform="translate(-70.9 -69.7)"/><path class="cls-2" d="M259.9,156c.9,15.7,1.1,31.7-15.3,57.1-10.5,16-32.1,29.4-45.3,50.8-12.1,23.4-6.2,40.8,6.3,56.1-16-6.6-26.5-20.8-30.3-44.2-1.7-20.8,4-37.5,19.1-48.8C208.2,211.9,260.2,189.2,259.9,156Z" transform="translate(-70.9 -69.7)"/></g></svg>