<svg id="Layer_3" data-name="Layer 3" xmlns="http://www.w3.org/2000/svg" viewBox="0 0 1010 1010"><defs><style>.cls-1{fill:#6590bb;}.cls-2{fill:#75a7d9;}</style></defs><path class="cls-1" d="M512,87A425.2,425.2,0,0,1,903.6,677.4,424.8,424.8,0,0,1,211.5,812.5,425.3,425.3,0,0,1,346.6,120.4,421.1,421.1,0,0,1,512,87m0-80C233.1,7,7,233.1,7,512s226.1,505,505,505,505-226.1,505-505S790.9,7,512,7Z" transform="translate(-7 -7)"/><path class="cls-1" d="M556.2,136.2C542.1,210.8,458.7,257.7,398.8,317c-98,97.1-156.9,216.2-142.5,340.6,5.9,116.5,53.6,210.1,150.8,279.5l162.6,14.7C475.4,919.9,380,885.4,334.2,758.6c-25.6-93-23.1-195.6,72.9-326.5C469.9,349.3,574.5,276.2,556.2,136.2Z" transform="translate(-7 -7)"/><path class="cls-2" d="M715.6,302.7c3.5,58.6,4.1,118.9-57.2,214-39.7,59.9-120.7,110.1-170,190.3-45.5,87.9-23.3,153.3,23.6,210.5-59.9-24.6-99.2-77.9-113.5-165.6-6.5-78.2,15-140.6,71.4-183.2C521.9,512,716.9,426.9,715.6,302.7Z" transform="translate(-7 -7)"/></svg>